<svg width="41" height="12" viewBox="0 0 41 12" fill="none" xmlns="http://www.w3.org/2000/svg">
<path d="M40 6.75C40.4142 6.75 40.75 6.41421 40.75 6C40.75 5.58579 40.4142 5.25 40 5.25L40 6.75ZM-0.530331 5.46967C-0.823223 5.76256 -0.823223 6.23743 -0.530331 6.53033L4.24264 11.3033C4.53553 11.5962 5.01041 11.5962 5.3033 11.3033C5.59619 11.0104 5.59619 10.5355 5.3033 10.2426L1.06066 6L5.3033 1.75736C5.5962 1.46446 5.5962 0.989589 5.3033 0.696696C5.01041 0.403802 4.53553 0.403802 4.24264 0.696696L-0.530331 5.46967ZM40 5.25L7.21238e-08 5.25L-7.21238e-08 6.75L40 6.75L40 5.25Z" fill="#438A5E"/>
</svg>
