<svg width="331" height="317" viewBox="0 0 331 317" fill="none" xmlns="http://www.w3.org/2000/svg">
<path d="M16.9774 74.8173C17.5543 74.4743 18.4703 74.5778 18.8727 74.9572C19.3423 75.4 22.7803 76.9945 26.5422 78.5144C30.3673 79.9671 34.4646 81.8032 35.6604 82.5506C37.7206 83.8596 38.1077 83.7178 40.7007 80.9678C42.2818 79.2909 43.6808 78.076 43.882 78.2657C44.0833 78.4554 44.2039 80.3431 44.1387 82.5623L44.0562 86.4124L47.6016 87.2213C53.05 88.4307 63.136 92.1124 63.0957 92.9614C63.1072 93.3524 60.405 94.6056 57.1777 95.7439C51.2368 97.7445 45.6964 97.8421 41.2081 96.0175C38.3029 94.7986 36.9709 96.0768 36.003 100.866C35.1462 105 35.3398 104.929 30.8554 103.234L27.5592 102.027L30.3822 98.2268C31.8847 96.0958 33.1304 94.1028 33.119 93.7118C33.1075 93.3209 31.1815 92.1384 28.8684 91.0977C24.1789 89.0834 18.2247 83.9759 18.5659 82.2703C18.6771 81.6149 18.4011 81.1013 17.876 80.9863C17.3509 80.8713 17.075 80.3577 17.1862 79.7023C17.3012 79.1772 16.8125 78.0829 16.0747 77.3872C14.8003 76.1856 14.9153 75.6605 16.9774 74.8173Z" fill="#383838"/>
<path d="M102.462 261.478C101.795 261.556 101.131 262.195 101.042 262.741C100.939 263.378 99.1795 266.735 97.1177 270.229C94.9648 273.709 92.829 277.658 92.3343 278.979C91.4951 281.271 91.1015 281.394 87.3707 280.788C85.0958 280.418 83.2464 280.305 83.202 280.578C83.1577 280.851 84.2099 282.423 85.6114 284.144L88.0184 287.151L85.696 289.949C82.1066 294.222 76.3394 303.279 76.8877 303.928C77.1164 304.246 80.0236 303.597 83.2777 302.538C89.2104 300.513 93.6677 297.221 96.1208 293.043C97.6857 290.308 99.5204 290.513 103.201 293.726C106.395 296.486 106.199 296.548 108.728 292.475L110.61 289.512L106.058 288.213C103.569 287.435 101.368 286.61 101.14 286.293C100.911 285.976 101.721 283.866 102.924 281.633C105.421 277.182 107.042 269.506 105.734 268.36C105.247 267.907 105.153 267.332 105.5 266.921C105.847 266.51 105.754 265.935 105.267 265.482C104.856 265.135 104.579 263.97 104.741 262.969C105.022 261.24 104.611 260.893 102.462 261.478Z" fill="#383838"/>
<path d="M127.704 16.1849C128.064 16.7353 130.171 17.3509 132.419 17.5676L136.609 17.9715L134.012 20.2998C132.546 21.6024 131.215 23.64 130.994 24.8565C130.583 26.9828 118.901 36.8928 116.857 36.6958C116.346 36.6465 116.82 34.9388 117.947 32.8815C122.19 25.2454 121.618 22.6118 116.358 25.8179C113.504 27.6056 113.208 27.4738 112.155 24.4844C111.36 22.0355 111.482 21.8409 114.3 21.4938C117.955 21.021 119.442 19.514 117.618 18.1006C116.85 17.5108 116.481 17.0626 116.787 17.0922C117.094 17.1217 119.513 16.633 122.249 16.0716C125.291 15.5397 127.457 15.5422 127.704 16.1849Z" fill="#383838"/>
<path d="M30.9782 146.876C24.4108 144.278 22.5032 143.15 22.6289 141.785C22.6677 140.823 22.3011 139.395 21.7377 138.683C20.8582 137.481 20.6796 137.527 19.9541 139.521C19.0959 141.74 16.7102 142.828 15.027 141.832C14.0401 141.324 1.12803 139.593 0.0564928 139.868C-0.211392 139.937 0.892491 141.272 2.44521 142.872C5.63994 146.049 13.5838 150.673 15.2804 150.238C17.3342 149.711 18.1773 152.255 16.6458 154.075C15.1807 155.784 15.2036 155.873 17.2944 157.716C18.4418 158.849 20.2371 159.911 21.2675 160.218C22.8796 160.565 23.1016 160.318 22.5517 158.175C21.3602 153.532 22.427 152.496 26.9289 153.721C29.1683 154.288 32.1656 154.471 33.505 154.127C36.6303 153.325 39.8837 151.539 39.6775 150.735C39.6088 150.467 35.6404 148.725 30.9782 146.876Z" fill="#383838"/>
<path d="M24.8871 195.668C26.2249 197.118 28.2631 198.133 29.4564 198.023C32.0437 197.968 45.5834 204.214 45.7109 205.591C45.7704 206.233 43.3004 206.555 38.9435 206.495C31.0729 206.483 30.3895 207.102 32.584 211.805C33.8657 214.649 33.9082 215.108 32.3664 216.455C30.3995 218.211 29.3065 218.404 29.1705 216.936C29.111 216.293 27.8633 213.816 26.3403 211.365C24.2562 207.855 23.5848 205.602 23.0749 200.095L22.4376 193.21L24.8871 195.668Z" fill="#383838"/>
<path d="M50.7387 259.593C51.008 257.954 49.8449 254.938 45.7598 246.365L43.4321 241.448L47.1224 243.116L50.7748 244.701L53.6934 241.76C55.2826 240.129 57.5817 238.278 58.8413 237.708C60.101 237.138 62.896 235.265 65.0272 233.49C68.09 231.091 69.0137 230.673 69.356 231.428C70.1166 233.108 66.3979 240.763 61.8268 246.982C57.3475 252.957 57.2921 254.399 61.4674 258.479C63.0139 260.107 63.1961 260.732 62.4007 262.105C61.5134 263.721 61.0254 263.537 57.8484 260.321L54.2752 256.676L53.8126 260.124C53.5354 261.97 52.862 263.388 52.328 263.327C51.0541 263.195 50.4535 261.645 50.7387 259.593Z" fill="#383838"/>
<path d="M199.92 278.799C195.679 286.914 195.187 289.61 197.37 292.467L199.274 294.957L194.806 298.372L190.265 301.843L194.155 301.77C205.51 301.446 206.117 301.33 211.399 298.221C214.462 296.46 217.659 295.177 219.024 295.294C222.345 295.54 223.056 294.649 222.416 291.077C221.676 286.77 220.065 286.028 216.915 288.435C215.45 289.555 213.339 290.588 212.198 290.765C209.51 291.195 207.951 288.093 206.562 279.292C205.194 270.823 204.087 270.741 199.92 278.799Z" fill="#383838"/>
<path d="M264.421 280.675C263.831 280.099 261.459 279.163 258.886 278.493C256.343 277.909 253.418 277.068 252.305 276.672C250.959 276.163 248.834 276.507 246.019 277.676L241.667 279.475L243.637 275.867C245.581 272.463 245.578 272.171 243.729 271.055C241.206 269.684 229.588 258.096 230.372 257.825C231.33 257.493 243.533 261.466 249.158 263.909C254.666 266.296 255.715 266.226 259.646 263.207C261.552 261.67 262.337 261.399 263.191 262.176C264.662 263.326 264.326 264.612 262.497 265.245C261.713 265.516 260.53 266.608 259.869 267.52C258.867 269.135 258.958 269.396 262.284 272.244C266.114 275.7 268.532 280.716 266.528 281.409C265.831 281.65 264.923 281.282 264.421 280.675Z" fill="#383838"/>
<path d="M285.493 241.857C284.397 242.057 281.991 243.279 280.173 244.541L276.865 246.726L277.688 242.9C278.134 240.794 278.037 238.392 277.459 237.559C276.828 236.651 277.255 233.548 278.556 229.279C280.652 222.437 282.322 220.155 281.099 225.829C280.445 229.09 282.205 232.918 283.871 231.761C284.401 231.393 285.169 230.074 285.657 228.838C286.435 226.726 286.662 226.568 288.366 227.406C291.155 228.836 291.43 229.88 289.461 231.247C288.477 231.93 287.581 233.226 287.494 234.071C287.381 236.17 290.536 236.673 294.854 235.134C297.75 234.133 297.5 234.419 292.729 237.732C289.904 239.805 286.589 241.658 285.493 241.857Z" fill="#383838"/>
<path d="M300.144 204.825C299.446 205.405 298.989 204.664 298.815 202.315C298.642 200.172 297.978 199.02 297.112 199.106C295.917 199.234 279.322 193.692 279.031 193.034C278.989 192.91 279.358 192.373 279.933 191.834C281.207 190.716 286.398 189.789 293.9 189.389L299.588 189.119L301.424 184.164C302.648 180.861 303.795 178.96 304.66 178.668C307.13 177.834 306.36 191.649 303.541 198.38C302.234 201.436 300.679 204.369 300.144 204.825Z" fill="#383838"/>
<path d="M279.387 56.4388C278.915 60.8895 278.5 61.7123 275.938 62.9799C273.047 64.4111 273.088 64.4937 274.764 67.8813C276.481 71.3514 276.481 71.3514 274.26 70.188C272.45 69.2323 271.831 69.2298 271.331 70.5058C270.499 72.3577 266.044 72.9166 262.71 71.5837C260.776 70.7924 260.777 70.5863 262.231 67.7063C263.602 65.2794 263.607 64.0426 262.421 61.6465C261.562 59.9114 259.88 57.9668 258.522 57.3016C256.26 56.0555 256.261 55.8494 257.883 52.2692L259.547 48.5655L261.882 52.2443C263.193 54.2699 264.793 56.2554 265.369 56.5876C266.973 57.5424 270.568 55.6606 274.128 52.0471C275.701 50.4456 277.315 48.9268 277.728 48.7223C279.216 47.9863 279.902 51.4523 279.387 56.4388Z" fill="#383838"/>
<path d="M241.158 19.2488C239.658 23.6163 237.703 27.3972 236.203 28.8964C233.857 31.2432 233.792 31.4387 235.878 33.5247C238.746 36.3929 238.615 37.4359 235.552 37.11L233.009 36.784L233.661 39.0004C234.052 40.1738 234.117 41.4123 233.792 41.7382C233.466 42.0642 230.141 39.3915 226.23 35.8714C222.449 32.3513 218.277 29.2224 216.973 28.8313C215.148 28.3098 214.561 27.7231 214.496 26.3542C214.301 24.203 215.865 22.6385 217.104 23.8771C217.625 24.3986 219.516 25.3764 221.276 25.963L224.535 27.1364L228.642 22.3778C233.531 16.8369 238.615 12.7953 241.614 12.4042C243.57 12.0131 243.504 12.5998 241.158 19.2488Z" fill="#383838"/>
<path d="M186.614 9.1883C188.003 10.8757 188.105 11.8193 187.227 12.9497C186.108 14.1783 186.461 14.5274 190.113 16.0697C193.389 17.5534 193.827 17.9384 192.449 18.3573C191.519 18.6648 189.635 19.5706 188.248 20.4858C185.558 22.3521 174.438 25.4614 172.909 24.8158C172.315 24.5647 172.54 23.5588 173.476 22.0528C174.918 20.06 174.892 19.6485 173.193 18.9312C172.089 18.465 169.617 17.9212 167.497 17.7266C164.336 17.3923 163.693 17.0205 163.006 15.3294C162.27 13.5175 162.342 13.3477 164.05 13.5686C165.042 13.5876 167.851 13.5727 170.113 13.4276C175.462 13.0846 176.212 10.5991 172.16 6.68638C170.31 4.90462 169.686 3.54005 170.214 2.76253C171.464 0.988586 184.006 5.88531 186.614 9.1883Z" fill="#383838"/>
<path d="M309.825 102.48C305.761 103.853 301.467 104.986 300.255 105.012C298.407 105.151 297.943 105.702 297.74 108.265L297.452 111.405L295.358 109.622C293.297 108.02 293.099 107.961 292.555 109.649C291.845 111.459 288.822 113.959 285.399 115.78L283.424 116.784L284.614 112.923C285.276 110.84 286.771 107.113 287.823 104.586C290.049 99.6999 290.022 96.8962 287.843 94.0981C286.737 92.6083 286.732 92.0475 287.917 90.8085C289.898 88.7736 290.748 88.8109 291.116 90.8989C291.79 94.7118 294.236 96.9011 297.141 96.3881C302.315 95.4744 316.66 97.7159 316.964 99.4408C317.028 99.8039 313.798 101.123 309.825 102.48Z" fill="#383838"/>
<path d="M291.137 151.979C295.601 151.795 300.309 151.704 301.507 151.672C303.285 151.581 304.083 152.234 305.102 154.505C306.687 158.038 307.061 157.971 308.217 154.017L309.171 150.962L319.277 150.066C330.787 149.147 332.403 148.018 326.673 144.93C321.871 142.335 316.148 141.063 311.994 141.714C307.84 142.365 306.488 141.152 306.099 136.679C305.889 132.833 305.767 132.787 302.803 133.611C300.923 134.151 300.775 134.723 301.516 137.725C302.616 141.98 302.422 142.673 299.37 142.628C292.977 142.565 281.251 148.634 282.496 151.409C282.722 151.914 286.673 152.163 291.137 151.979Z" fill="#383838"/>
<path d="M143.569 297.935C143.889 298.994 143.06 299.437 139.247 300.204L134.437 301.176L138.069 302.679C139.969 303.549 141.773 304.738 141.96 305.355C142.84 308.267 157.619 311.602 160.361 309.521C161.463 308.706 161.268 308.38 158.777 307.785C157.213 307.39 155.861 306.74 155.754 306.387C155.381 305.151 159.485 304.392 161.765 305.244C164.708 306.377 165.51 305.846 165.946 302.825C166.381 299.804 165.24 298.897 161.887 299.911C160.916 300.204 159.141 300.066 157.957 299.654C155.995 298.898 155.995 298.898 157.91 298.223C159.057 297.877 160.955 297.785 162.086 298.021C163.738 298.388 163.976 298.22 163.418 297.329C162.435 295.989 152.632 295.1 147.3 295.94C144.017 296.548 143.249 296.876 143.569 297.935Z" fill="#383838"/>
</svg>
